<?xml version="1.0" encoding="UTF-8" standalone="no"?>
<!-- Created with Inkscape (http://www.inkscape.org/) -->

<svg
   xmlns:dc="http://purl.org/dc/elements/1.1/"
   xmlns:cc="http://creativecommons.org/ns#"
   xmlns:rdf="http://www.w3.org/1999/02/22-rdf-syntax-ns#"
   xmlns:svg="http://www.w3.org/2000/svg"
   xmlns="http://www.w3.org/2000/svg"
   xmlns:sodipodi="http://sodipodi.sourceforge.net/DTD/sodipodi-0.dtd"
   xmlns:inkscape="http://www.inkscape.org/namespaces/inkscape"
   width="103.53758"
   height="28"
   id="svg2"
   version="1.1"
   inkscape:version="0.48.3.1 r9886"
   sodipodi:docname="New document 1">
  <defs
     id="defs4">
    <clipPath
       id="clipPath3012"
       clipPathUnits="userSpaceOnUse">
      <path
         id="path3014"
         d="M 0,576 576,576 576,0 0,0 0,576 z"
         inkscape:connector-curvature="0" />
    </clipPath>
  </defs>
  <sodipodi:namedview
     id="base"
     pagecolor="#ffffff"
     bordercolor="#666666"
     borderopacity="1.0"
     inkscape:pageopacity="0.0"
     inkscape:pageshadow="2"
     inkscape:zoom="2.2986963"
     inkscape:cx="239.25102"
     inkscape:cy="71.744275"
     inkscape:document-units="px"
     inkscape:current-layer="layer1"
     showgrid="false"
     fit-margin-top="0"
     fit-margin-left="0"
     fit-margin-right="0"
     fit-margin-bottom="0"
     inkscape:window-width="1920"
     inkscape:window-height="1011"
     inkscape:window-x="-8"
     inkscape:window-y="1072"
     inkscape:window-maximized="1" />
  <metadata
     id="metadata7">
    <rdf:RDF>
      <cc:Work
         rdf:about="">
        <dc:format>image/svg+xml</dc:format>
        <dc:type
           rdf:resource="http://purl.org/dc/dcmitype/StillImage" />
        <dc:title></dc:title>
      </cc:Work>
    </rdf:RDF>
  </metadata>
  <g
     inkscape:label="Layer 1"
     inkscape:groupmode="layer"
     id="layer1"
     transform="translate(-289.31188,-322.04585)">
    <g
       id="g3883"
       transform="matrix(0.17247486,0,0,0.17247486,239.41285,289.67174)"
       inkscape:export-filename="C:\Program Files\ZWAMP\vdrive\web\enzymeproject\static\img\github.png"
       inkscape:export-xdpi="90"
       inkscape:export-ydpi="90">
      <path
         inkscape:connector-curvature="0"
         d="m 404.93313,257.1871 -50.445,0 c -1.30125,0 -2.3575,1.05625 -2.3575,2.35875 l 0,24.6625 c 0,1.30125 1.05625,2.36125 2.3575,2.36125 l 19.67875,0 0,30.6425 c 0,0 -4.41875,1.50625 -16.635,1.50625 -14.4125,0 -34.54625,-5.26625 -34.54625,-49.54 0,-44.28125 20.965,-50.1075 40.6475,-50.1075 17.0375,0 24.3775,2.99875 29.0475,4.445 1.4675,0.44875 2.825,-1.0125 2.825,-2.31375 l 5.6275,-23.83 c 0,-0.61 -0.20625,-1.34375 -0.90125,-1.84125 -1.89625,-1.35375 -13.4675,-7.8275 -42.7,-7.8275 -33.67625,0 -68.22,14.3275 -68.22,83.2025 0,68.87625 39.55,79.14 72.8775,79.14 27.595,0 44.335,-11.79125 44.335,-11.79125 0.69,-0.38125 0.765,-1.34625 0.765,-1.7875 l 0,-76.92125 c 0,-1.3025 -1.055,-2.35875 -2.35625,-2.35875"
         style="fill:#ffffff;fill-opacity:1;fill-rule:nonzero;stroke:none"
         id="path3018" />
      <path
         inkscape:connector-curvature="0"
         d="m 664.90501,195.95535 c 0,-1.3125 -1.04,-2.37125 -2.34125,-2.37125 l -28.40375,0 c -1.2975,0 -2.3525,1.05875 -2.3525,2.37125 0,0.006 0.008,54.89125 0.008,54.89125 l -44.27375,0 0,-54.89125 c 0,-1.3125 -1.045,-2.37125 -2.34375,-2.37125 l -28.40125,0 c -1.2925,0 -2.34625,1.05875 -2.34625,2.37125 l 0,148.62875 c 0,1.31125 1.05375,2.37875 2.34625,2.37875 l 28.40125,0 c 1.29875,0 2.34375,-1.0675 2.34375,-2.37875 l 0,-63.57375 44.27375,0 c 0,0 -0.0763,63.56875 -0.0763,63.57375 0,1.31125 1.05375,2.37875 2.3525,2.37875 l 28.47,0 c 1.30125,0 2.34125,-1.0675 2.34375,-2.37875 l 0,-148.62875 z"
         style="fill:#ffffff;fill-opacity:1;fill-rule:nonzero;stroke:none"
         id="path3022" />
      <path
         inkscape:connector-curvature="0"
         d="m 458.53175,215.4586 c 0,-10.2275 -8.2,-18.49125 -18.31625,-18.49125 -10.10625,0 -18.3125,8.26375 -18.3125,18.49125 0,10.2175 8.20625,18.505 18.3125,18.505 10.11625,0 18.31625,-8.2875 18.31625,-18.505"
         style="fill:#ffffff;fill-opacity:1;fill-rule:nonzero;stroke:none"
         id="path3026" />
      <path
         inkscape:connector-curvature="0"
         d="m 456.5005,313.23197 0,-68.6075 c 0,-1.3025 -1.05125,-2.3675 -2.35,-2.3675 l -28.31375,0 c -1.29875,0 -2.46125,1.34 -2.46125,2.64125 l 0,98.295 c 0,2.8875 1.8,3.7475 4.13,3.7475 l 25.51,0 c 2.79875,0 3.485,-1.375 3.485,-3.79375 l 0,-29.915 z"
         style="fill:#ffffff;fill-opacity:1;fill-rule:nonzero;stroke:none"
         id="path3030" />
      <path
         inkscape:connector-curvature="0"
         d="m 772.85188,242.4801 -28.18625,0 c -1.2925,0 -2.345,1.06625 -2.345,2.37625 l 0,72.8775 c 0,0 -7.16,5.24 -17.32375,5.24 -10.1625,0 -12.86,-4.6125 -12.86,-14.56375 l 0,-63.55375 c 0,-1.31 -1.05,-2.37625 -2.34375,-2.37625 l -28.60625,0 c -1.29125,0 -2.34875,1.06625 -2.34875,2.37625 l 0,68.36625 c 0,29.5575 16.47375,36.78875 39.13625,36.78875 18.59125,0 33.58125,-10.27 33.58125,-10.27 0,0 0.71375,5.4125 1.03625,6.05375 0.32375,0.64 1.165,1.2875 2.07375,1.2875 l 18.19875,-0.0813 c 1.29125,0 2.34875,-1.06625 2.34875,-2.3725 l -0.009,-99.7725 c 0,-1.31 -1.05375,-2.37625 -2.3525,-2.37625"
         style="fill:#ffffff;fill-opacity:1;fill-rule:nonzero;stroke:none"
         id="path3034" />
      <path
         inkscape:connector-curvature="0"
         d="m 838.771,322.88285 c -9.77625,-0.2975 -16.4075,-4.73375 -16.4075,-4.73375 l 0,-47.0675 c 0,0 6.54125,-4.01 14.5675,-4.7275 10.15,-0.90875 19.93125,2.1575 19.93125,26.37 0,25.5325 -4.415,30.57125 -18.09125,30.15875 m 11.1175,-83.74125 c -16.00875,0 -26.8975,7.1425 -26.8975,7.1425 l 0,-50.32875 c 0,-1.3125 -1.04875,-2.37125 -2.34375,-2.37125 l -28.48375,0 c -1.295,0 -2.3475,1.05875 -2.3475,2.37125 l 0,148.62875 c 0,1.31125 1.0525,2.37875 2.35125,2.37875 l 19.76125,0 c 0.89,0 1.56375,-0.46 2.0625,-1.2625 0.49,-0.79875 1.2,-6.85375 1.2,-6.85375 0,0 11.64625,11.03875 33.69625,11.03875 25.885,0 40.73,-13.13 40.73,-58.94375 0,-45.81375 -23.70875,-51.8 -39.72875,-51.8"
         style="fill:#ffffff;fill-opacity:1;fill-rule:nonzero;stroke:none"
         id="path3038" />
      <path
         inkscape:connector-curvature="0"
         d="m 538.13376,242.24322 -21.30625,0 c 0,0 -0.0312,-28.14125 -0.0312,-28.1475 0,-1.06625 -0.55,-1.5975 -1.78125,-1.5975 l -29.035,0 c -1.12875,0 -1.73375,0.49625 -1.73375,1.58125 l 0,29.08625 c 0,0 -14.55125,3.5125 -15.535,3.79625 -0.97875,0.285 -1.7,1.18875 -1.7,2.26625 l 0,18.2775 c 0,1.315 1.04875,2.375 2.3475,2.375 l 14.8875,0 0,43.97375 c 0,32.66125 22.91,35.86875 38.36875,35.86875 7.06375,0 15.51375,-2.2675 16.90875,-2.7825 0.84375,-0.31 1.335,-1.18375 1.335,-2.13125 l 0.0225,-20.1075 c 0,-1.31125 -1.1075,-2.37375 -2.355,-2.37375 -1.24125,0 -4.4175,0.50625 -7.6875,0.50625 -10.465,0 -14.01125,-4.86625 -14.01125,-11.165 0,-6.29375 -10e-4,-41.78875 -10e-4,-41.78875 l 21.3075,0 c 1.29875,0 2.35125,-1.06 2.35125,-2.375 l 0,-22.89375 c 0,-1.3125 -1.0525,-2.36875 -2.35125,-2.36875"
         style="fill:#ffffff;fill-opacity:1;fill-rule:nonzero;stroke:none"
         id="path3042" />
    </g>
  </g>
</svg>
