<svg xmlns="http://www.w3.org/2000/svg" width="103" height="28"><path d="M19.942 11.984h-8.7a.407.407 0 0 0-.407.407v4.254c0 .224.182.407.406.407h3.394v5.285s-.762.26-2.869.26c-2.486 0-5.958-.909-5.958-8.545 0-7.637 3.616-8.642 7.01-8.642 2.94 0 4.205.517 5.01.767.254.077.488-.175.488-.4l.97-4.11a.379.379 0 0 0-.155-.317C18.804 1.117 16.808 0 11.766 0 5.958 0 0 2.471 0 14.35 0 26.23 6.821 28 12.57 28c4.759 0 7.646-2.034 7.646-2.034.12-.065.132-.232.132-.308V12.391a.407.407 0 0 0-.406-.407M64.78 1.423a.405.405 0 0 0-.403-.409h-4.9a.407.407 0 0 0-.405.41l.001 9.467h-7.636V1.423a.406.406 0 0 0-.404-.409h-4.899a.407.407 0 0 0-.404.41v25.634c0 .226.181.41.404.41h4.899a.407.407 0 0 0 .404-.41V16.093h7.636l-.013 10.965c0 .226.182.41.406.41h4.91a.407.407 0 0 0 .404-.41V1.423zM29.186 4.787c0-1.764-1.414-3.19-3.159-3.19-1.743 0-3.158 1.426-3.158 3.19 0 1.762 1.415 3.192 3.158 3.192 1.745 0 3.16-1.43 3.16-3.192m-.351 16.863V9.818a.407.407 0 0 0-.405-.408h-4.884c-.224 0-.424.231-.424.456v16.953c0 .498.31.646.712.646h4.4c.482 0 .6-.237.6-.654v-5.16zM83.398 9.448h-4.86a.408.408 0 0 0-.405.41v12.569s-1.235.904-2.988.904-2.218-.796-2.218-2.512V9.857a.407.407 0 0 0-.405-.41H67.59a.408.408 0 0 0-.406.41V21.65c0 5.098 2.842 6.345 6.75 6.345 3.207 0 5.792-1.771 5.792-1.771s.124.933.18 1.044c.055.11.2.222.357.222l3.139-.014a.408.408 0 0 0 .405-.41l-.002-17.208a.408.408 0 0 0-.406-.41m11.369 13.867c-1.686-.051-2.83-.816-2.83-.816V14.38s1.128-.692 2.513-.816c1.75-.156 3.437.372 3.437 4.548 0 4.404-.761 5.273-3.12 5.202m1.917-14.443c-2.76 0-4.639 1.232-4.639 1.232v-8.68a.406.406 0 0 0-.404-.41h-4.913a.407.407 0 0 0-.405.41v25.634c0 .226.182.41.406.41h3.408c.154 0 .27-.08.356-.217.084-.138.207-1.183.207-1.183s2.009 1.904 5.812 1.904c4.464 0 7.025-2.264 7.025-10.166 0-7.902-4.09-8.934-6.853-8.934m-53.769.536H39.24l-.006-4.855c0-.184-.095-.276-.307-.276H33.92c-.194 0-.299.086-.299.273v5.017s-2.51.606-2.68.655a.407.407 0 0 0-.292.39v3.153c0 .227.18.41.405.41h2.567v7.584c0 5.633 3.952 6.186 6.618 6.186 1.218 0 2.676-.39 2.916-.48.146-.053.23-.204.23-.367l.004-3.468a.414.414 0 0 0-.406-.41c-.214 0-.762.088-1.326.088-1.805 0-2.416-.84-2.416-1.926v-7.207h3.675a.407.407 0 0 0 .405-.41V9.815a.407.407 0 0 0-.405-.408"/></svg>