<svg xmlns="http://www.w3.org/2000/svg" xmlns:xlink="http://www.w3.org/1999/xlink" width="214" height="38"><defs><linearGradient id="a"><stop offset="0" stop-color="#fff" stop-opacity=".8"/><stop offset="1" stop-color="#fff" stop-opacity=".3"/></linearGradient><linearGradient id="b"><stop offset="0" stop-color="#4a5078"/><stop offset="1" stop-color="#5e6592"/></linearGradient><linearGradient x1="335.041" y1="300.165" x2="334.373" y2="350.784" id="c" xlink:href="#a" gradientUnits="userSpaceOnUse" gradientTransform="matrix(.8981 0 0 .79068 719.545 -1071.887)"/><linearGradient x1="563.263" y1="-382.447" x2="563.263" y2="-410.661" id="d" xlink:href="#b" gradientUnits="userSpaceOnUse" gradientTransform="translate(453.02 -420.235)"/></defs><path d="M473-415.625v38.094h49.656v-13.25l4.875 3.437 4.282 3 2.125 1.5 1.5 1.063 1.218.844-3.093 3.406h48.28v-10.531h-5.03v-5.032h-9.125l9.156-10.094 7.781 8.594v17.064h16.438v-17.063l1.906-2.094 2.906-3.187v22.343h16.469v-6.281l3.937 4.625 1.407 1.656h4.812l1.438-1.656 3.937-4.625v1.375h5.031v4.906h38.782v-10.531h-5.032v-5.657h5.032v-6.25H687v-10.656h-5.031v-4.906H646.03v1l-.562.656-6.407 7.531-1.187 1.406v9.344H636.5l-3.813-3.25-2.593 3.031-13.5-15.875 3.5-3.843h-19.969L598.75-414l-5.906 6.469-5.875-6.469-.157-.156 1.25-1.375h-51.218v4.906h-5.032v8.375l-17.687-12.469-1.156-.812h-16.282v-.094H473zm75.25 15.656h5.719l-2.625 2.875-3.094 3.406v-6.28zm-16.438.906v1.97h-.687l-.469-.344 1.157-1.625zm-28.187 5.344h2.594v5.656h-2.594v-5.656zm58.063.188l.468.437h-.687v-.219l.218-.218z" fill="url(#c)" transform="matrix(1 0 0 .99754 -473 414.602)"/><path d="M478.042-410.626h31.96v5.624h-31.96v-5.624zm33.177 0l19.208 13.54v5.623l-12.791-9.016v18.032h-6.417v-28.179zm25.624 0h6.376v28.179l-6.376-4.492v-23.687zm7.96 0h31.999l-15.35 16.901h-6.416l10.274-11.277h-20.508v-5.624zm32.04 0h6.415l12.792 14.105v14.074h-6.416v-14.074l-12.792-14.105zm25.623 0h6.376l-9.584 10.556-3.208-3.519 6.416-7.037zm8.447 0l19.207 22.556 6.376-7.508v5.623l-6.376 7.508-12.791-14.985v14.985h-6.416v-28.179zm38.375 0v28.179h-6.376v-20.64l6.376-7.539zm1.786 0h30.659v5.624h-30.659v-5.624zm-173.032 11.278h25.584v5.623h-25.584v-5.623zm173.032 0h25.583v5.623h-25.583v-5.623zM478.042-388.07h25.584v5.623h-25.584v-5.623zm71.877 0h26.883v5.623h-32l5.117-5.623zm101.155 0h25.583v5.623h-25.583v-5.623z" fill="url(#d)" transform="matrix(1 0 0 .99754 -473 414.602)"/></svg>